<?xml version="1.0" encoding="UTF-8"?>
<!DOCTYPE svg PUBLIC "-//W3C//DTD SVG 1.1//EN" "http://www.w3.org/Graphics/SVG/1.1/DTD/svg11.dtd">
<!-- Creator: CorelDRAW -->
<svg xmlns="http://www.w3.org/2000/svg" xml:space="preserve" width="210mm" height="297mm" version="1.1" style="shape-rendering:geometricPrecision; text-rendering:geometricPrecision; image-rendering:optimizeQuality; fill-rule:evenodd; clip-rule:evenodd"
viewBox="0 0 21000 29700"
 xmlns:xlink="http://www.w3.org/1999/xlink"
 xmlns:xodm="http://www.corel.com/coreldraw/odm/2003">
 <defs>
  <style type="text/css">
   <![CDATA[
    .fil0 {fill:#0026FF;fill-rule:nonzero}
    .fil4 {fill:#0026FF;fill-rule:nonzero}
    .fil1 {fill:#0687FF;fill-rule:nonzero}
    .fil5 {fill:#0687FF;fill-rule:nonzero}
    .fil6 {fill:#19E8E1;fill-rule:nonzero}
    .fil12 {fill:#220F2D;fill-rule:nonzero}
    .fil2 {fill:#24F0F7;fill-rule:nonzero}
    .fil3 {fill:#371A45;fill-rule:nonzero}
    .fil11 {fill:#5F9CC7;fill-rule:nonzero}
    .fil9 {fill:#71D4FF;fill-rule:nonzero}
    .fil14 {fill:#918796;fill-rule:nonzero}
    .fil10 {fill:#998AA0;fill-rule:nonzero}
    .fil13 {fill:#9B8DA2;fill-rule:nonzero}
    .fil8 {fill:#C3BAC7;fill-rule:nonzero}
    .fil7 {fill:white;fill-rule:nonzero}
   ]]>
  </style>
 </defs>
 <g id="Camada_x0020_1">
  <metadata id="CorelCorpID_0Corel-Layer"/>
  <g id="_1771032734480">
   <path class="fil0" d="M14009.34 21044.37c0,0 563.16,638.17 738.96,1390.25 175.81,752.08 334.53,2539.57 334.53,2539.57 0,0 -744.75,-918.13 -1360.11,-1387.02 -615.36,-468.82 -936.84,-1254.34 -781.42,-1719.06 155.49,-464.72 446.22,-1012.53 1068.04,-823.74z"/>
   <path class="fil1" d="M13912.93 21504.85c0,0 347.91,394.21 456.51,858.86 108.59,464.65 206.69,1568.88 206.69,1568.88 0,0 -460.14,-567.18 -840.29,-856.83 -380.14,-289.65 -578.76,-774.89 -482.68,-1062.05 96.01,-287.1 275.65,-625.53 659.77,-508.86z"/>
   <path class="fil2" d="M13745.06 21497.92c0,0 245.92,278.68 322.68,607.02 76.77,328.47 146.07,1108.95 146.07,1108.95 0,0 -325.24,-400.94 -593.9,-605.61 -268.72,-204.74 -409.07,-547.74 -341.19,-750.67 67.83,-202.92 194.79,-442.11 466.34,-359.69z"/>
   <path class="fil3" d="M13769.75 21111.05c-315.96,0 -550.64,256.75 -729.14,790.29 -133.15,398.11 134.64,1137.14 745.56,1602.6 420.44,320.33 892.23,836.99 1160.62,1146.69 -54.97,-552.59 -174,-1651.44 -300.42,-2192.19 -149.5,-639.45 -597.8,-1203.74 -696.37,-1322.09 -62.84,-16.82 -122.92,-25.3 -180.25,-25.3zm1313.15 3967.83c-30.89,0 -61.03,-13.73 -81.35,-38.75 -7.4,-9.09 -744.14,-913.96 -1342.28,-1369.67 -628.88,-479.11 -995.5,-1302.58 -817.21,-1835.52 252.72,-755.65 655.74,-1055.32 1197.69,-890.68 18.57,5.65 35.19,16.28 48.04,30.88 23.75,26.84 582.73,666.7 762.45,1435.67 175.47,750.66 330.35,2480.82 336.88,2554.09 4.1,45.89 -22.27,89.02 -64.93,106.31 -12.78,5.18 -26.11,7.67 -39.29,7.67z"/>
   <path class="fil4" d="M11983.81 21778.69c0,0 478.85,542.56 628.28,1181.95 149.5,639.45 284.4,2159.08 284.4,2159.08 0,0 -633.19,-780.54 -1156.31,-1179.19 -523.18,-398.58 -796.48,-1066.42 -664.34,-1461.5 132.14,-395.15 379.34,-860.88 907.97,-700.34z"/>
   <path class="fil5" d="M11901.86 22170.14c0,0 295.78,335.2 388.15,730.21 92.31,395.02 175.68,1333.87 175.68,1333.87 0,0 -391.18,-482.28 -714.34,-728.53 -323.22,-246.19 -492.1,-658.76 -410.42,-902.86 81.61,-244.1 234.34,-531.87 560.93,-432.69z"/>
   <path class="fil6" d="M11759.09 22164.28c0,0 209.11,236.9 274.38,516.13 65.26,279.15 124.2,942.75 124.2,942.75 0,0 -276.53,-340.85 -504.95,-514.91 -228.43,-174.06 -347.79,-465.66 -290.06,-638.17 57.66,-172.51 165.65,-375.91 396.43,-305.8z"/>
   <path class="fil3" d="M11778.6 21850.01c-195.99,0 -423.94,125.35 -603.45,662.19 -111.56,333.38 114.38,953.39 628.48,1345.11 342.06,260.65 723.82,673.49 956.75,939.93 -48.64,-482.75 -146.54,-1369.26 -250.22,-1812.72 -124.81,-534.09 -496.81,-1006.61 -585.69,-1113.92 -45.48,-12.05 -94.6,-20.59 -145.87,-20.59zm1117.96 3374.4c-30.88,0 -61.02,-13.66 -81.34,-38.69 -6.26,-7.73 -631.51,-775.62 -1138.48,-1161.89 -539.61,-411.1 -853.68,-1119.04 -700.21,-1578.04 218.06,-652.03 567.26,-910.12 1037.69,-767.28 18.57,5.65 35.26,16.35 48.11,30.88 20.25,23.01 498.02,569.88 651.7,1227.43 149.43,639.25 281.24,2111.31 286.75,2173.68 4.11,45.82 -22.27,88.95 -64.92,106.24 -12.79,5.18 -26.11,7.67 -39.3,7.67z"/>
   <path class="fil4" d="M14309.76 17484.61c0,0 1066.96,909.52 1138.55,2023.04 26.04,200.97 -351.62,-153.21 -351.62,-153.21 0,0 432.36,1208.12 352.9,1195.07 -79.4,-13.05 -287.77,-65.13 -287.77,-65.13l690.25 2533.04c0,0 -489.41,-944.17 -762.38,-1302.31 -273.03,-358.15 -696.23,-976.74 -696.23,-976.74 0,0 -144.19,317.1 -240.94,221.36 -96.82,-95.74 -234.41,-1203.61 -280.03,-1185.11 -45.55,18.5 -266.98,299.54 -345.09,188.86 -78.18,-110.74 -227.21,-2077.81 -227.21,-2077.81 0,0 567.79,-102.47 1009.57,-401.06z"/>
   <path class="fil5" d="M14078.84 17704.62c0,0 694.56,580.91 741.18,1292.02 16.96,128.37 -228.89,-97.83 -228.89,-97.83 0,0 281.44,771.52 229.77,763.18 -51.74,-8.27 -187.38,-41.58 -187.38,-41.58l449.31 1617.73c0,0 -318.58,-603.05 -496.27,-831.74 -177.7,-228.76 -453.22,-623.77 -453.22,-623.77 0,0 -93.85,202.52 -156.83,141.36 -63.04,-61.16 -152.6,-768.7 -182.34,-756.86 -29.67,11.78 -173.79,191.28 -224.65,120.57 -50.87,-70.65 -147.89,-1326.94 -147.89,-1326.94 0,0 369.65,-65.47 657.21,-256.14z"/>
   <path class="fil6" d="M13930.15 17736.51c0,0 228.9,501.39 254.93,748.78 26.04,247.47 160.88,986.09 160.88,986.09 0,0 -545.06,-582.33 -688.37,-933.94 -143.24,-351.69 -143.24,-651.16 -143.24,-651.16l415.8 -149.77z"/>
   <path class="fil3" d="M13924.03 19865.32l0 0 0 0zm-305.6 47.16l0 0 0 0zm775.03 721.27c34.31,0 66.74,16.82 86.39,45.48 4.24,6.19 424.88,620.54 693.07,972.36 99.38,130.4 224.99,333.32 345.9,541.22l-457.99 -1680.91c-9.82,-35.86 0.2,-74.21 26.17,-100.79 26.04,-26.51 64.12,-37.34 100.18,-28.32 29.81,7.46 88.28,21.79 146.07,35.12 -53.01,-206.36 -195.92,-639.25 -335.13,-1028.14 -16.28,-45.55 0.74,-96.28 41.11,-122.79 40.44,-26.51 93.72,-21.94 129.05,11.1 55.03,51.6 116.6,101.8 166.39,137.32 -104.63,-866.86 -825.89,-1601.79 -1035.74,-1799.19 -336.15,207.83 -715.48,312.73 -887.39,352.83 62.24,804.42 145.6,1673.64 194.31,1898.23 41.85,-28.8 99.58,-84.24 125.28,-108.86 45.82,-44.01 71.05,-68.23 102,-80.81 29.2,-11.77 65.2,-9.62 92.78,5.59 60.15,33.1 70.11,67.14 151.79,519.82 35.8,198.08 91.98,509.12 133.42,638.51 28.06,-35.93 62.64,-93.19 87.07,-146.54 15.67,-34.39 48.64,-57.67 86.25,-60.9 3.03,-0.27 6.06,-0.33 9.02,-0.33zm1458.61 2488.36c-38.08,0 -74.48,-20.86 -92.99,-56.45 -4.84,-9.42 -488.33,-940.33 -752.68,-1287.11 -192.77,-252.91 -462.3,-638.24 -603.86,-842.64 -48.44,69.37 -109.94,130.8 -180.65,143.85 -52.68,9.76 -103.48,-6.53 -143.05,-45.55 -66.47,-65.8 -110.07,-256.01 -207.16,-794 -16.61,-92.04 -35.52,-196.59 -51.87,-278.01 -89.22,80.88 -173.19,139.28 -260.38,130.94 -47.5,-4.58 -89.29,-29.21 -117.61,-69.31 -25.84,-36.6 -64.93,-92.04 -161.55,-1131.08 -46.62,-500.71 -84.1,-994.23 -84.44,-999.14 -4.1,-53.42 32.97,-101.32 85.72,-110.95 5.45,-1 552.19,-102.67 969.61,-384.78 38.95,-26.38 90.76,-23.42 126.55,7.06 44.88,38.29 1099.66,949.76 1174.88,2093.02 12.18,105.29 -46.69,147.55 -72.8,160.94 -24.55,12.58 -68.96,35.39 -169.48,-13.12 302.77,875.88 263.61,922.97 225.6,968.59 -25.43,30.55 -63.99,44.95 -103.21,38.49 -30.08,-4.98 -76.37,-14.87 -123.47,-25.57l643.83 2362.61c14.06,51.68 -13.06,105.57 -62.98,125.08 -12.44,4.85 -25.3,7.13 -38.01,7.13z"/>
   <path class="fil7" d="M14211.12 16832.98c0,0 351.62,366.55 299.54,485.24 -52.14,118.75 -851.86,598.34 -1532.89,599.48 -681.1,1.08 -498.69,-433.43 -498.69,-433.43l1732.04 -651.29z"/>
   <path class="fil7" d="M13165.96 17354.08c0,0 1357.69,-516.19 1487.95,-1160.89 130.19,-644.63 -807.46,-4173.92 -1341.41,-4369.31 -533.95,-195.32 -1973.05,0 -1973.05,0l-1358.76 481.88c0,0 1336.22,4453.95 1598.22,4857.71 261.93,403.69 1171.72,377.38 1587.05,190.61z"/>
   <path class="fil8" d="M13346.95 17592.26c-13.59,-53.29 -26.11,-106.78 -37.41,-160.27 143.11,-59.34 403.56,-175.74 666.43,-335.94l98.37 178.1c0,0 -351.15,225.59 -727.39,318.11z"/>
   <path class="fil8" d="M13266.55 17177.19c-22.07,-178.83 -24.96,-353.5 0.74,-514.91 77.37,-486.45 44,-924.46 29,-1070.12 35.79,-61.63 71.38,-171.1 30.81,-337.15 -26.17,-106.98 -81.75,-180.25 -145.26,-229.03 433.36,190.34 787.07,384.58 1083.98,565.17 44.41,227.08 77.44,420.38 80.07,504.62 8.48,273.3 -668.72,650.95 -668.72,650.95l105.7 169.01c-184.35,108.06 -370.39,198.15 -516.32,261.46z"/>
   <path class="fil3" d="M10135.44 12384.21c394.54,1310.25 1348.06,4401.47 1548.83,4710.9 210.73,324.63 1040.45,319.72 1430.22,144.39 2.22,-1.01 4.51,-1.96 6.79,-2.83 359.7,-136.99 1314.03,-595.92 1409.5,-1068.31 56.92,-281.91 -123.26,-1267.86 -419.24,-2293.45 -384.58,-1332.86 -714.33,-1886.25 -842.23,-1933.01 -409.55,-149.91 -1497.71,-48.85 -1900.12,4.77l-1233.75 437.54zm2306.23 5227.56c-389.63,0 -787.47,-101.46 -968.13,-379.94 -264.15,-407.06 -1475.9,-4432.35 -1613.15,-4889.94 -19.25,-64.19 15.2,-132.14 78.31,-154.55l1358.77 -481.87c8.14,-2.9 16.55,-4.91 25.09,-6.06 60.02,-8.14 1476.31,-197.2 2033.14,6.53 380.88,139.34 788.34,1375.11 997.25,2099.27 258.23,894.92 501.12,2031.72 424.08,2412.87 -138.87,687.49 -1401.96,1190.56 -1563.03,1252.13 -187.65,83.49 -477.64,141.56 -772.33,141.56z"/>
   <path class="fil3" d="M13619.31 17127.2c-183.08,-492.17 -338.43,-993.89 -487.93,-1497.16 -50.47,-167.67 -92.52,-338.3 -102.2,-520.36 -0.34,-5.99 4.3,-11.17 10.29,-11.44 3.83,-0.2 7.33,1.61 9.42,4.44 106.78,147.82 181.12,307.08 247.13,469.23 99.91,242.95 198.75,486.18 292.27,731.56 94.2,244.9 185.36,491.02 267.92,740.1 46.69,155.76 -174.94,234.55 -236.9,83.63z"/>
   <path class="fil3" d="M13466.78 12005.61c-139.68,94.87 -287.09,177.63 -436.6,255.94 -74.61,39.77 -150.84,76.84 -226.94,114.25 -75.83,37.74 -156.36,67.95 -255.2,69.1 -6.8,0.07 -12.31,-5.38 -12.38,-12.18 81.55,-170.63 240.26,-247.06 376.78,-359.15 135.84,-100.25 274.71,-196.73 421.05,-280.91 140.22,-75.89 262.4,120.17 133.29,212.95z"/>
   <path class="fil3" d="M12975.15 18043.32c-287.84,0 -483.09,-74.15 -580.45,-220.35 -115.72,-173.73 -40.43,-365.95 -31.48,-387.35 26.84,-63.92 100.45,-94.12 164.43,-67.21 63.99,26.84 94.07,100.45 67.22,164.5 0.07,0 -33.71,88.35 9.75,151.93 47.24,69.16 178.77,107.18 370.46,107.18 0.81,0 1.62,0 2.49,0 591.34,-0.94 1279.84,-391.59 1408.35,-517.2 -24.56,-67.69 -142.23,-226.2 -265.49,-354.92 -47.98,-50.05 -46.29,-129.58 3.76,-177.55 50.06,-48.04 129.52,-46.36 177.56,3.7 271.89,283.39 380.89,492.91 323.9,622.69 -82.56,188.33 -938.12,673.36 -1647.68,674.58 -0.94,0 -1.88,0 -2.82,0z"/>
   <path class="fil7" d="M11697.93 11899.11c0,0 989.25,261.79 2695.33,1070.86 1706.07,809.07 2806.67,2095.1 2865.27,2604.63 42.06,365.27 -703.23,429.8 -1133.03,299.54 0,0 26.11,377.65 -429.73,377.65 -455.84,0 -1120.05,-846.47 -2943.26,-1536.72l183.95 350c0,0 214.9,0 268.59,219.74 48.31,197.54 -39.09,273.51 -39.09,273.51 0,0 68.43,511.2 -22.74,1084.18 -91.17,573.04 143.24,1276.28 390.71,1875.36 247.39,599.08 690.18,1106.99 599.01,1927.5 -91.17,820.44 -494.86,1497.63 -1172.06,1719.06 -677.19,221.36 -950.69,-299.54 -1015.82,-638.17 0,0 -390.71,1067.9 -1276.28,1067.9 -885.57,0 -885.57,-1133.03 -781.41,-1458.61 0,0 -1406.54,-1341.41 -2109.77,-4180.45 0,0 -273.5,-26.03 -325.58,-273.5 -52.08,-247.46 84.64,-364.67 84.64,-364.67l-96.48 -540.48c0,0 -971.42,560.06 -1850.46,1178.65 -879.11,618.6 -1640.95,596.12 -1816.76,291.54 -175.84,-304.59 195.32,-812.5 195.32,-812.5 0,0 65.13,-553.47 690.25,-1126.51 625.12,-573.04 2156.8,-1897.76 2836.55,-2326.08 0,0 2484.13,581.66 4202.85,-1082.43z"/>
   <path class="fil9" d="M10542.22 15922.18c0,203.66 -165.04,368.7 -368.7,368.7 -203.6,0 -368.71,-165.04 -368.71,-368.7 0,-203.67 165.11,-368.71 368.71,-368.71 203.66,0 368.7,165.04 368.7,368.71z"/>
   <path class="fil8" d="M8619.03 17527.6c-82.96,0 -179.37,-14.54 -238.65,-71.73 -120.91,-116.59 -279.42,-504.28 -255.54,-526.81 23.95,-22.61 -130.53,-50.2 -130.53,-50.2 0,0 -39.56,5.65 -98.23,5.65 -4.77,0 -9.75,-0.06 -14.87,-0.13 -20.52,-29.74 -53.55,-50.12 -90.69,-54.3 -7.47,-0.8 -183.55,-22.27 -215.58,-174.39 -6.79,-32.16 -9.35,-61.03 -9.01,-86.59 3.9,0.13 7.94,0.2 12.04,0.2 145.87,0 408,-83.03 408,-83.03 0,0 -7.87,-106.84 -9.76,-112.83 -1.14,-3.5 -53.15,-182.61 -93.58,-345.49 4.17,44.87 7.67,74.48 7.67,74.48 0,0 -38.42,112.42 -39.84,112.9 -1.27,0.4 -161.94,52.41 -193.16,62.57l-93.46 -523.53c-7.2,-40.23 -33.57,-74.48 -70.64,-91.77 -16.89,-7.87 -34.92,-11.77 -53.02,-11.77 -21.73,0 -43.4,5.65 -62.78,16.82 -9.75,5.58 -986.42,569.95 -1860.01,1184.7 -501.46,352.83 -940.41,476.56 -1238.67,476.56 -67.89,0 -128.51,-6.39 -180.85,-17.96 -105.5,-23.28 -182.27,-68.43 -216.11,-127.1 -82.29,-142.57 17.83,-387.14 108.25,-548.75 18.57,12.72 153.81,102 290.33,102 3.43,0 6.79,-0.07 10.29,-0.14 150.38,-5.11 315.82,-103.41 315.82,-103.41 0,0 709.76,-95.2 1504.16,-609.64 794.41,-514.44 826.97,-677.2 905.15,-957.23 78.12,-279.96 317.57,-1049.4 317.57,-1049.4 0,0 212.35,1168.16 907.84,1470.19 0,0 -317.03,41.58 -356.12,139.2 -10.43,26.11 -14.94,72.13 -15.88,125.62 54.43,14.46 167.2,143.18 276.33,412.1 146.54,360.9 328.87,940.47 550.23,966.51 6.59,0.74 14.6,1.15 23.89,1.15 303.51,0 2012.54,-402.22 2167.29,-528.57 159.53,-130.26 166.05,-201.92 166.05,-201.92l-166.05 -709.76 -87.26 -349.87c0,0 285.88,257.09 539.8,287.23l18.97 293.02c0,0 1091.79,-183.08 1601.52,-542.9 0,0 137.66,89.48 49.79,249.88l-71.79 75.7c0,0 -345.83,163.96 -669.59,297.72l-462.16 161.81 0 0c-75.09,20.66 -116.87,28.8 -116.87,28.8l44.07 112.7c0,0 24.89,138.46 25.09,145.46 0.21,7.07 -37.27,148.36 -60.15,186.31 -0.06,0.13 -0.13,0.27 -0.2,0.4 -43.06,61.49 -114.11,120.91 -228.42,167.26 -252.65,102.41 -1041.4,311.86 -1611.81,458.13 -440.3,104.49 -944.31,220.21 -1186.06,262.33 -16.55,1.14 -34.38,1.82 -52.81,1.82z"/>
   <path class="fil8" d="M10668.78 22468.53c-223.64,0 -390.77,-79.99 -510.87,-244.5 -54.3,-74.35 -94.53,-159.66 -123.73,-249.28 94.19,31.22 227.54,62.77 380.81,62.77 188.8,0 407.87,-47.9 621.69,-203.59 512.42,-373.08 428.39,-726.85 176.01,-726.85 -21.8,0 -44.88,2.69 -68.96,8.21 -279.96,63.98 -395.49,134.16 -571.5,134.16 -14.06,0 -28.53,-0.47 -43.53,-1.42 -202.12,-12.64 -346.3,-34.31 -346.3,-34.31l-811.09 -1250.24c0,0 815.8,-58.6 674.03,-732.57 -141.69,-673.96 -1460.29,-878.84 -1460.29,-878.84 0,0 -464.58,-876.08 -460.21,-1286.3 0,0 214.83,476.36 420.25,476.36 0.2,0 0.4,0 0.6,0 22.81,-0.07 66.48,-5.99 126.15,-16.35 60.96,-4.17 105.3,-13.93 105.3,-13.93 0,0 438.95,-86.79 451.26,-89.82 4.71,-1.14 274.92,-67.68 629.5,-158.58 432.69,-102.61 803.82,-194.31 803.82,-194.31l624.04 -153.14c0,0 293.82,-128.04 319.52,-149.09 25.57,-20.93 69.98,-90.83 92.85,-128.85 111.08,-158.92 35.26,-332.17 35.26,-332.17l0 0 -17.16 -50.8 89.96 -90.7c95.74,-26.37 245.64,-73.2 431.88,-149.36 10.09,-4.11 20.19,-8.28 30.28,-12.45l366.96 -128.44 208.37 -97.7c0,0 58.6,436.33 -45.62,840.02 -104.15,403.76 162.82,1367.45 468.82,2135.81 288.91,725.23 699.54,1009.57 739.3,1696.12 -94.53,809.06 -499.1,1405.25 -1084.39,1596.6 -95.34,31.22 -184.08,46.76 -265.83,46.76 -99.04,0 -187.78,-22.87 -265.36,-68.62 -232.39,-136.92 -305.33,-433.1 -322.21,-520.57 -5.59,-29.13 -21,-54.43 -42.53,-72.53 84.51,32.97 310.65,110.68 564.57,110.68 247.13,0 520.56,-73.54 715.55,-333.52 329.74,-439.69 208.77,-672.28 -21.13,-672.28 -83.37,0 -181.06,30.61 -276.8,92.92 -359.76,234.27 -639.72,273.3 -639.72,273.3l-859.53 -1228.37c0,0 826.97,-256.28 729.27,-1037.7 -47.63,-381.02 -343.07,-508.11 -678.54,-508.11 -352.49,0 -749.19,140.28 -949.35,273.7l-5.72 151.59c0,0 351.82,944.57 779.19,1503.35 427.38,558.78 600.5,760.9 600.5,760.9l6.32 204 -56.25 380.61c-48.03,4.11 -90.15,35.59 -107.18,82.02 -3.56,9.82 -369.64,985.41 -1158.26,985.41z"/>
   <path class="fil10" d="M8671.84 17525.78c241.75,-42.12 745.76,-157.84 1186.06,-262.33 -354.58,90.9 -624.79,157.44 -629.5,158.58 -12.31,3.03 -451.26,89.82 -451.26,89.82 0,0 -44.34,9.76 -105.3,13.93zm3026.29 -887.72c0.07,-0.13 0.14,-0.27 0.2,-0.4 22.88,-37.95 60.36,-179.24 60.15,-186.31 -0.2,-7 -25.09,-145.46 -25.09,-145.46l0 0c0,0 75.82,173.25 -35.26,332.17zm108.06 -473.67l0 0 462.16 -161.81c-10.09,4.17 -20.19,8.34 -30.28,12.45 -186.24,76.16 -336.14,122.99 -431.88,149.36z"/>
   <path class="fil8" d="M15695.77 16126.18c-158.52,0 -390.98,-155.56 -712.72,-370.86 -452.34,-302.71 -1135.92,-760.16 -2186.07,-1157.73 -14.46,-5.51 -29.53,-8.14 -44.4,-8.14 -35.32,0 -69.84,14.87 -94.2,42.39 -34.51,39.09 -41.38,95.47 -17.09,141.7l183.95 350c2.29,4.37 4.85,8.54 7.61,12.58 -131,76.43 -492.44,278.68 -786.87,362.92 -279.56,80 -404.43,89.55 -447.96,89.55 -13.6,0 -19.25,-0.94 -19.25,-0.94l-73.27 -131.87 73.34 -27.12c0,0 448.37,-427.17 -125.01,-1374.57 0,0 232.33,-99.38 588.58,-99.38 255.48,0 574.53,51.07 917.53,226.41 821.38,419.97 2393.97,1540.02 2589.29,1595.32 40.5,11.51 83.83,16.22 126.76,16.22 164.03,0 323.22,-68.9 304.59,-92.72 -23.55,-30.07 -157.85,-249.07 -157.85,-249.07l120.57 -100.73c0,0 387.35,149.57 690.12,149.57 179.17,0 352.02,-24.83 463.37,-45.14 20.18,51.06 32.56,96.14 37,134.42 3.23,28.4 0.34,62.78 -46.08,101.47 -93.66,78.18 -294.23,120.43 -509,120.43 -141.62,0 -289.37,-18.37 -416.74,-56.99 -11.64,-3.49 -23.55,-5.18 -35.39,-5.18 -27.92,0 -55.51,9.49 -78.12,27.05 -32.22,25.03 -50.19,64.93 -48.37,105.63 0.07,1.01 3.77,98.64 -61.03,166.39 -49.72,52.01 -131.53,78.39 -243.29,78.39z"/>
   <path class="fil8" d="M10487.19 16116.15c34.92,-56.31 55.03,-122.79 55.03,-193.97 0,-29.94 -3.56,-59.08 -10.29,-86.93 6.32,16.21 56.99,157.1 -44.74,280.9z"/>
   <path class="fil11" d="M10152.8 16269.62c-244.91,0 -327.67,-281.51 -310.98,-375.97 0,0 127.29,155.62 321.27,155.62 14.13,0 28.59,-0.8 43.33,-2.55 218.13,-26.04 324.9,-213.02 324.9,-213.02 0,0 0.21,0.47 0.61,1.55 6.73,27.85 10.29,56.99 10.29,86.93 0,71.18 -20.11,137.66 -55.03,193.97 -38.69,47.03 -99.38,91.64 -192.83,125.89 -52.22,19.17 -99.31,27.58 -141.56,27.58z"/>
   <path class="fil8" d="M9033.15 13766.32c-819.23,-0.07 -1482.7,-342.53 -1738.64,-495.87 80.4,-58 154.75,-109.53 221.63,-153.2 376.11,97.9 758.27,145.6 1137.54,145.6 1136.13,0 2245.21,-428.66 3079.57,-1223.06 35.53,10.5 84.91,25.43 147.48,45.35 -254.79,336.48 -1111.16,1364.62 -2231.88,1614.1 -211.94,47.23 -418.29,67.08 -615.7,67.08z"/>
   <path class="fil3" d="M7440.18 15650.83c18.1,0 36.13,3.9 53.02,11.77 37.07,17.29 63.44,51.54 70.64,91.77l96.48 540.48c8.28,46.16 -4.7,88.88 -41.91,117.48 -0.88,1.01 -78.38,77.57 -43.47,243.36 32.03,152.12 208.11,173.59 215.58,174.39 52.21,5.92 96.35,43.8 108.99,94.8 685.07,2765.5 2060.86,4106.64 2074.65,4119.83 34.72,33.24 47.5,83.43 32.83,129.18 -55.17,172.51 -90.22,719.78 150.92,1050.14 120.1,164.51 287.23,244.5 510.87,244.5 788.62,0 1154.7,-975.59 1158.26,-985.41 19.45,-53.09 71.66,-86.66 128.11,-82.09 56.25,4.51 102.6,46.03 113.24,101.53 16.88,87.47 89.82,383.65 322.21,520.57 141.63,83.49 320.4,90.83 531.19,21.86 589.4,-192.69 995.44,-795.88 1086.34,-1613.49 63.38,-570.62 -145.87,-974.79 -367.36,-1402.63 -77.17,-149.03 -156.97,-303.18 -222.97,-463.04 -237.91,-575.94 -498.23,-1317.32 -398.65,-1943.04 86.93,-546.67 22.94,-1042.88 22.34,-1047.86 -6.26,-47.03 -0.14,-82.69 37.74,-108.59 7.14,-12.24 26.85,-57.39 3.77,-151.65 -29.94,-122.59 -141.76,-124 -146.54,-124 -46.69,0 -89.48,-25.84 -111.22,-67.15l-183.95 -350c-24.29,-46.23 -17.42,-102.61 17.09,-141.7 34.65,-39.09 89.76,-52.75 138.6,-34.25 1050.15,397.57 1733.73,855.02 2186.07,1157.73 321.74,215.3 554.2,370.86 712.72,370.86 111.76,0 193.57,-26.38 243.29,-78.39 64.8,-67.75 61.1,-165.38 61.03,-166.39 -1.82,-40.7 16.15,-80.6 48.37,-105.63 32.17,-25.03 74.49,-33.64 113.51,-21.87 320.46,97.16 770.31,66.28 925.74,-63.44 46.42,-38.69 49.31,-73.07 46.08,-101.47 -48.78,-423.74 -1079.27,-1692.14 -2794.36,-2505.52 -1427.8,-677.12 -2358.44,-970.68 -2606.92,-1043.88 -905.01,845.27 -2002.79,1092.53 -2771.15,1150.06 -715.48,53.62 -1271.97,-40.58 -1441.92,-74.49 -681.84,443.93 -2157,1717.65 -2776.07,2285.11 -578.35,530.18 -649.74,1044.02 -650.41,1049.2 -2.7,21.06 -10.7,41.65 -23.22,58.8 -83.56,114.85 -297.59,485.71 -187.98,675.58 33.84,58.67 110.61,103.82 216.11,127.1 282.58,62.44 803.95,-25.43 1419.52,-458.6 873.59,-614.75 1850.26,-1179.12 1860.01,-1184.7 19.38,-11.17 41.05,-16.82 62.78,-16.82zm3228.6 7068.93c-301.02,0 -547.81,-120.16 -713.8,-347.58 -265.96,-364.33 -268.38,-916.18 -207.23,-1198.83 -265.83,-275.86 -1432.84,-1596 -2072.76,-4110.94 -134.16,-38.62 -300.82,-140.76 -345.89,-354.92 -41.11,-195.11 13.45,-341.86 73.47,-426.97l-54.37 -304.38c-308.55,183 -1027.33,618.05 -1686.22,1081.69 -579.5,407.8 -1184.44,594.1 -1618.27,498.5 -177.76,-39.23 -309,-124.61 -379.58,-246.86 -192.42,-333.32 100.02,-800.93 184.79,-924.12 25.17,-135.78 153.94,-647.12 724.7,-1170.31 658.49,-603.59 2171.8,-1909.6 2854.45,-2339.8 28.46,-17.9 62.91,-23.69 95.67,-16.02 5.99,1.41 618.19,141.03 1426.86,79.26 739.56,-56.45 1801.41,-298.33 2660,-1129.6 31.62,-30.61 77.04,-42.45 119.49,-31.22 40.84,10.83 1020,273.97 2716.99,1078.8 1720.41,815.87 2869.72,2124.64 2936.26,2703.81 14.54,125.75 -32.09,237.5 -134.63,323.09 -213.35,178.02 -665.02,213.95 -1018.25,145.66 -17.49,59.82 -49.18,127.57 -106.17,188.59 -98.97,106.04 -243.16,159.87 -428.52,159.87 -234.81,0 -480.53,-164.44 -852.46,-413.39 -392.33,-262.53 -905.82,-606.14 -1661.47,-938.11 63.51,48.78 119.09,122.05 145.26,229.03 40.57,166.05 4.98,275.52 -30.81,337.15 15,145.66 48.37,583.67 -29,1070.12 -90.7,570.08 175,1304.67 382.7,1807.6 61.9,149.84 135.77,292.48 213.89,443.46 228.96,442.31 465.73,899.63 393.94,1545.88 -102,918.33 -572.31,1600.44 -1257.91,1824.62 -282.39,92.32 -530.32,77.45 -736.88,-44.2 -164.77,-97.09 -270.61,-245.04 -337.69,-381.76 -192.89,341.26 -595.58,861.88 -1256.56,861.88z"/>
   <path class="fil3" d="M16031.1 15957.03c-120.5,-134.43 -234.14,-271.42 -302.97,-442.04 -8.2,-25.64 -13.05,-46.97 -10.49,-76.44 20.05,-113.44 121.71,-139.61 201.71,-174.12 78.92,-28.8 160.4,-41.79 251.7,-18.78 6.66,1.62 10.7,8.42 9.02,15.01 -52.95,76.3 -122.79,121.31 -184.36,160.87 -31.95,22.27 -68.09,42.86 -80.6,67.42 -0.74,0.47 9.08,-3.91 13.46,-31.02 0.74,-12.45 2.55,-14.06 0.33,-22.27 85.79,120.03 200.77,239.46 292.08,356.86 95.87,126.76 -78.46,276.94 -189.88,164.51z"/>
   <path class="fil3" d="M4093.9 16433.59c11.03,83.29 30.75,196.26 124.67,215.91 100.72,10.43 208.71,-6.6 287.09,-69.91 61.9,-37.48 155.56,-29.13 206.29,23.28 65,66.07 119.83,133.76 158.25,221.97 12.65,55.3 -213.28,-57.53 -231.38,-71.59 -11.04,-6.26 -21.53,-13.12 -32.16,-19.92 -7.54,-4.98 -4.92,-2.29 -5.79,-2.15 -0.27,2.96 2.09,5.85 3.43,7.94 -109.87,125.01 -364.47,185.83 -519.69,122.38 -169.55,-70.51 -241.27,-258.09 -241.94,-426.77 5.85,-166.18 241.47,-166.18 251.23,-1.14z"/>
   <path class="fil3" d="M6795.01 16269.08c-21.87,0 -43.87,-6.86 -62.71,-20.92 -39.29,-29.47 -964.62,-734.59 -1128.79,-1847.64 -8.41,-57.19 31.15,-110.41 88.34,-118.82 57.19,-8.54 110.41,31.09 118.82,88.28 151.32,1026.05 1038.37,1703.99 1047.32,1710.71 46.15,34.72 55.5,100.32 20.79,146.54 -20.59,27.39 -52.01,41.85 -83.77,41.85z"/>
   <path class="fil3" d="M13371.98 15078.79c-56.32,0 -102.81,-44.74 -104.56,-101.39 -2.02,-64.05 -36.53,-1574.34 1010.71,-2131.03 51.07,-27.11 114.45,-7.8 141.63,43.26 27.12,51.07 7.74,114.45 -43.33,141.63 -931.58,495.2 -900.16,1925.35 -899.76,1939.68 1.75,57.8 -43.67,106.04 -101.46,107.79 -1.08,0 -2.15,0.06 -3.23,0.06z"/>
   <path class="fil3" d="M7316.45 15798.04c-60.42,-331.03 -87.4,-661.18 -94.67,-996.18 3.43,-334.12 -15.21,-678.4 122.18,-993.29 4.04,-9.42 19.45,-7.8 20.73,2.76 56.38,331.44 39.43,648.81 78.58,978.02 14.27,140.01 37.41,346.37 55.11,484.36 20.92,161.48 43.19,324.84 65.87,483.42 18.57,161.35 -213.09,200.03 -247.8,40.91z"/>
   <path class="fil3" d="M12680.05 14817.67c-319.86,-205.68 -662.39,-412.71 -1003.79,-583.8 -116.39,-58.67 -231.78,-117.75 -340.24,-209.05 -7.6,-5.99 -3.23,-19.65 6.66,-19.72 141.23,-6.52 274.58,22.61 400.73,67.56 190.88,64.39 377.52,141.76 558.11,230.91 181.66,90.7 356.59,188.26 523.45,308.89 130.13,99.18 -7.73,294.77 -144.92,205.21z"/>
   <path class="fil3" d="M11945.06 21651.86l-0.07 0c-69.37,-0.07 -125.55,-56.25 -125.55,-125.61 0,-13.26 0.81,-309.17 67.01,-635.62 -225.73,-243.09 -1175.48,-1325.26 -1506.04,-2655.02 -16.75,-67.35 24.29,-135.51 91.64,-152.19 67.28,-16.76 135.44,24.28 152.19,91.57 351.42,1413.53 1477.45,2577.91 1488.75,2589.49 29.88,30.54 42.19,74.21 32.7,115.86 -73.87,323.02 -75.02,642.81 -75.02,645.97 -0.06,69.3 -56.31,125.55 -125.61,125.55z"/>
   <path class="fil3" d="M8772.43 17954.3c470.71,152.53 977.88,215.31 1467.29,136.79l161.01 -30.75c94.46,-25.57 229.97,-59.01 321.47,-88.88 205.75,-65.94 416.28,-148.76 583.07,-288.51 17.16,-18.7 47.3,-20.52 64.26,-0.54 12.17,14 13.25,33.91 4.1,48.98 -77.1,122.66 -184.15,205.01 -299.47,285.01 -495.47,309.5 -1118.97,442.05 -1691.07,303.92 -234.08,-57.39 -459.34,-145.53 -652.91,-293.69 -38.08,-30.14 -3.63,-91.03 42.25,-72.33z"/>
   <path class="fil3" d="M11578.77 16297.95c-11.84,0 -23.68,-2.09 -34.98,-6.06 -12.12,-4.3 -298.8,-111.28 -337.96,-598.14 -4.38,-53.96 33.1,-102.33 86.46,-111.62 10.69,-1.81 1078.19,-190.94 1578.03,-598.2 44.88,-36.61 110.75,-29.81 147.28,15 36.54,44.81 29.81,110.75 -15,147.28 -454.22,370.05 -1289.53,565.1 -1576.36,623.44 36.27,203.86 126.02,285.68 167.94,313.47 990.13,-208.65 1502.01,-603.05 1507.12,-607.09 45.42,-35.59 111.22,-27.72 146.95,17.63 35.66,45.41 27.92,111.08 -17.43,146.87 -22.54,17.77 -564.16,437.88 -1631.12,655.27 -6.93,1.41 -13.93,2.15 -20.93,2.15z"/>
   <path class="fil3" d="M8642.91 17660.14c-266.84,0 -419.77,-214.69 -427.04,-225.26 -5.85,-8.34 -10.42,-17.49 -13.59,-27.18 -15.54,-47.57 -382.09,-1166.2 -430.94,-1337.1 -64.59,-226.13 -6.86,-461.15 140.42,-571.56 98.16,-73.67 1100.26,-343.41 1614.97,-471.45 1557.45,-387.54 1659.92,-299.27 1715.03,-251.83 193.5,166.65 375.3,765.13 395.35,832.81 16.48,55.38 -15.14,113.64 -70.58,130.13 -55.37,16.28 -113.64,-15.14 -130.13,-70.58 -67.35,-226.81 -212.41,-616.91 -322.41,-725.5 -289.32,-63.32 -2856.13,608.83 -3079.78,726.31 -73.2,58.6 -100.31,208.44 -61.56,344.14 44.54,155.9 375.84,1168.16 423.07,1312.41 31.02,37.34 149.5,161.01 329.35,114.32 280.43,-72.6 2513.25,-619.94 2535.73,-625.46 81.88,-20.19 307.81,-101.06 369.98,-231.52 72.33,-151.92 -42.18,-356.73 -43.4,-358.82 -28.45,-50.12 -11.16,-114.04 38.89,-142.7 50.06,-28.6 113.78,-11.57 142.64,38.35 7,12.18 170.83,301.36 50.87,553.19 -115.73,243.1 -469.36,335.2 -509.33,344.89 -22.27,5.45 -2253.75,552.52 -2532.97,624.79 -47.64,12.31 -92.51,17.62 -134.57,17.62z"/>
   <path class="fil3" d="M11009.63 17088.45c-17.29,0 -34.85,-4.31 -51,-13.33 -50.46,-28.19 -68.56,-91.97 -40.3,-142.43 1.08,-2.02 124.81,-230.78 78.86,-481.27 -52.01,-283.73 -431.75,-1523.87 -435.59,-1536.39 -16.95,-55.24 14.13,-113.84 69.44,-130.73 55.23,-16.95 113.84,14.06 130.73,69.37 15.81,51.54 387.2,1264.37 441.37,1559.94 59.81,326.31 -95.41,609.3 -102.07,621.14 -19.11,34.39 -54.77,53.7 -91.44,53.7z"/>
   <path class="fil3" d="M9648.78 17422.91c-45.68,0.06 -87.73,-30.15 -100.72,-76.37l-224.11 -797.7 -583.54 -61.02c-41.05,-4.31 -75.7,-32.23 -88.55,-71.39l-314.14 -955c-18.1,-54.97 11.78,-114.11 66.75,-132.21 54.96,-18.1 114.11,11.84 132.14,66.74l292.95 890.69 586.83 61.29c42.66,4.44 78.32,34.51 89.89,75.83l243.36 866.12c15.68,55.64 -16.82,113.5 -72.46,129.11 -9.49,2.7 -18.98,3.91 -28.4,3.91z"/>
   <path class="fil3" d="M10173.52 15658.16c-145.6,0 -264.02,118.42 -264.02,264.02 0,145.6 118.42,264.01 264.02,264.01 145.6,0 264.08,-118.41 264.08,-264.01 0,-145.6 -118.48,-264.02 -264.08,-264.02zm0 737.41c-261.06,0 -473.4,-212.34 -473.4,-473.39 0,-261.06 212.34,-473.4 473.4,-473.4 261.05,0 473.4,212.34 473.4,473.4 0,261.05 -212.35,473.39 -473.4,473.39z"/>
   <path class="fil3" d="M7777.6 17059.79c-43.2,0 -83.63,-26.92 -98.77,-69.98 -19.18,-54.56 9.48,-114.31 64.05,-133.49l347.24 -122.11c54.57,-19.25 114.32,9.48 133.49,64.05 19.18,54.56 -9.48,114.31 -64.05,133.49l-347.24 122.05c-11.51,4.1 -23.22,5.99 -34.72,5.99z"/>
   <path class="fil3" d="M7536.66 16421.68c-44.2,0 -85.25,-28.19 -99.58,-72.46 -17.83,-55.04 12.31,-114.05 67.35,-131.88l381.96 -123.73c55.17,-17.76 114.05,12.38 131.88,67.35 17.83,54.97 -12.32,114.05 -67.35,131.87l-381.96 123.74c-10.77,3.43 -21.6,5.11 -32.3,5.11z"/>
   <path class="fil3" d="M11709.37 19814.18c-349.26,0 -607.49,-73.67 -626.74,-79.32 -55.44,-16.28 -87.19,-74.48 -70.91,-129.99 16.21,-55.44 74.41,-87.06 129.79,-70.98 7.8,2.28 788.01,223.1 1439.36,-136.05 375.91,-207.29 640.19,-568.87 785.46,-1074.7 15.94,-55.51 73.94,-87.67 129.52,-71.72 55.57,16.01 87.66,73.94 71.72,129.58 -161.41,562.01 -459.94,966.11 -887.32,1201.13 -330.02,181.52 -681.7,232.05 -970.88,232.05z"/>
   <path class="fil3" d="M9418.07 20096.9c-237.1,0 -406.05,-23.55 -426.23,-26.51 -57.19,-8.34 -96.75,-61.49 -88.41,-118.68 8.34,-57.19 61.5,-97.02 118.62,-88.48 13.79,1.89 1382.99,191.08 1842.99,-563.29 30.15,-49.38 94.53,-64.92 143.92,-34.85 49.38,30.08 65,94.54 34.85,143.85 -358.41,587.71 -1136.8,687.96 -1625.74,687.96z"/>
   <path class="fil3" d="M9932.31 21018.26c315.28,96.56 656.14,155.09 984,92.18 109.67,-21.93 212.41,-54.36 340.52,-74.68 51.87,-0.74 -71.93,114.11 -83.63,126.22 -355.79,265.76 -930.25,239.79 -1330.78,90.9 -152.66,-64.39 -66.94,-288.57 89.89,-234.62z"/>
   <path class="fil3" d="M12051.16 20729.83c133.89,19.78 282.52,21.46 417.96,5.24 166.72,-20.11 327.06,-73.8 472.99,-157.03 70.85,-37.68 131.47,-72.2 212.82,-100.66 6.25,-2.49 13.72,0.61 15.6,7.27 -62.77,227.82 -291.06,355.59 -496.47,437.13 -215.71,79.6 -452.74,101.67 -678.81,53.02 -161.55,-41.85 -107.85,-276.73 55.91,-244.97z"/>
   <path class="fil7" d="M4337.73 9345.14c83.9,709.02 347.58,1401.35 790.77,2006.36 90.42,123.32 187.85,242.89 292.81,358.14 50.93,56.18 104.22,111.42 158.85,166.05 165.65,163.77 341.26,311.45 525.14,443.26 158.25,113.9 322.95,215.77 491.9,305.86 204,108.93 415.06,200.23 630.57,274.51 78.72,26.78 157.91,51.47 237.5,74.08 1458.35,409.88 3087.92,52.95 4232.66,-1074.29 1686.77,-1660.06 1682.05,-4362.25 -9.69,-6035.28 -326.05,-322.02 -690.92,-583.21 -1079.81,-781.62 -45.21,-23.55 -91.3,-46.02 -137.79,-67.42 -124.01,-58.13 -250.02,-110.14 -377.79,-155.89 -295.44,-105.77 -600.23,-178.7 -907.91,-218.94 -307.55,-40.57 -618.79,-48.37 -927.22,-23.55 -98.03,7.87 -195.79,18.91 -293.41,33.44 -146.28,21.94 -291.4,50.8 -435.52,87.8 -717.83,182.07 -1396.58,549.57 -1958.32,1102.69 -970.34,954.94 -1380.76,2254.49 -1232.74,3504.8z"/>
   <path class="fil3" d="M4349.64 9343.73c85.38,721.06 358.07,1412.86 788.55,2000.63 91.1,124.34 189.39,244.51 292.07,357.14 47.03,52.01 98.9,106.17 158.45,165.71 162.75,160.88 338.9,309.57 523.59,441.91 154.54,111.29 319.59,213.89 490.55,305.06 200.03,106.78 411.57,198.89 628.89,273.7 78.04,26.65 157.71,51.47 236.83,73.88 1503.42,422.53 3120.75,12.11 4220.95,-1071.2 810.15,-797.43 1257.1,-1860.02 1258.45,-2992.11 1.41,-1141.24 -448.98,-2215.93 -1268.21,-3026.08 -319.79,-315.82 -682.1,-578.09 -1076.78,-779.4 -43.06,-22.47 -87.94,-44.47 -137.39,-67.21 -123.2,-57.8 -249.95,-110.08 -376.78,-155.56 -291.8,-104.42 -596.46,-177.89 -905.42,-218.33 -306.06,-40.37 -617.18,-48.24 -924.66,-23.41 -98.83,7.87 -197.27,19.1 -292.67,33.37 -148.56,22.2 -294.63,51.6 -434.31,87.46 -736.81,186.98 -1412.12,567.19 -1952.87,1099.66 -935.09,920.29 -1383.12,2194.08 -1229.24,3494.78zm4304.17 3805.61c-397.63,0 -798.57,-53.89 -1191.76,-164.37 -79.53,-22.54 -159.67,-47.5 -238.12,-74.28 -218.53,-75.29 -431.28,-167.87 -632.38,-275.25 -171.98,-91.7 -337.89,-194.85 -493.25,-306.74 -185.7,-133.08 -362.92,-282.58 -526.55,-444.46 -59.95,-59.82 -112.02,-114.25 -159.32,-166.53 -103.21,-113.3 -202.05,-234.07 -293.69,-359.08 -432.89,-591.14 -707.14,-1286.91 -792.99,-2012.08 -154.81,-1308.17 295.77,-2589.22 1236.24,-3514.75 543.78,-535.5 1222.86,-917.87 1963.84,-1105.85 140.35,-36 287.29,-65.67 436.66,-87.94 95.94,-14.33 194.92,-25.63 294.29,-33.57 309.16,-24.9 622.03,-16.96 929.77,23.54 310.65,40.64 616.98,114.52 910.4,219.55 127.5,45.68 254.93,98.3 378.8,156.36 49.72,22.94 95,45.08 138.26,67.69 396.83,202.38 761.1,466.06 1082.71,783.63 823.8,814.72 1276.75,1895.54 1275.33,3043.24 -1.34,1138.62 -450.85,2207.33 -1265.64,3009.27 -818.56,805.97 -1921.85,1241.62 -3052.6,1241.62z"/>
   <path class="fil8" d="M8653.95 13011.68c-293.08,0 -588.12,-30.21 -880.26,-91.84 122.8,10.16 245.59,15.28 367.9,15.28 461.96,0 917.73,-72.67 1347.2,-219.68 828.51,-283.53 1510.68,-814.72 2000.5,-1551.86 128.78,102.94 276.93,170.56 439.28,199.22 22.54,4.04 45.15,7.2 67.82,9.55 -117.4,153.2 -246.38,299.27 -386.6,437.27 -792.52,780.41 -1860.69,1202.13 -2955.84,1202.06zm-512.62 -327.66c-664.35,0 -1343.43,-159.53 -1970.84,-473 -35.86,-25.76 -71.38,-52.27 -106.5,-79.32 -0.2,-0.07 -0.34,-0.2 -0.54,-0.34 -1.08,-0.87 -2.22,-1.75 -3.3,-2.62 -0.33,-0.2 -0.67,-0.47 -1.01,-0.74 -0.94,-0.74 -1.88,-1.48 -2.82,-2.15 -0.54,-0.41 -1.08,-0.81 -1.55,-1.21 -0.81,-0.61 -1.55,-1.22 -2.35,-1.82 -0.68,-0.54 -1.35,-1.08 -2.09,-1.62 -0.54,-0.47 -1.14,-0.87 -1.75,-1.34 -0.88,-0.67 -1.75,-1.35 -2.56,-2.02 -0.47,-0.34 -0.87,-0.67 -1.34,-1.01 -1.01,-0.81 -2.09,-1.61 -3.1,-2.42 -0.27,-0.2 -0.54,-0.4 -0.74,-0.61 -1.21,-0.94 -2.42,-1.88 -3.63,-2.82 -0.13,-0.07 -0.2,-0.21 -0.34,-0.27 -128.51,-100.59 -251.83,-209.11 -367.9,-323.9 -58.19,-58.13 -108.72,-110.95 -154.81,-161.81 -99.92,-109.67 -195.59,-226.68 -284.34,-347.72 -23.28,-31.75 -46.08,-63.85 -68.36,-96.21 804.9,794.6 1864.8,1250.64 2952.55,1250.64 89.96,0 180.11,-3.16 270.34,-9.42 879.38,-61.49 1655.41,-419.77 2242.99,-1016.03 237.1,-119.29 465.12,-261.66 680.96,-427.24 0.27,0.34 0.47,0.67 0.74,1.01 -461.42,713.86 -1110.49,1227.03 -1901.6,1497.7 -403.35,138 -831.61,206.29 -1266.11,206.29z"/>
   <path class="fil3" d="M4429.84 9334.24c83.7,707.27 351.14,1385.88 773.47,1962.49 89.42,121.91 185.84,239.86 286.56,350.4 46.36,51.21 97.29,104.42 155.89,162.96 159.39,157.64 332.31,303.58 513.57,433.43 151.79,109.27 313.73,209.99 481.47,299.48 196.33,104.75 403.96,195.11 617.24,268.59 76.44,26.1 154.75,50.52 232.53,72.53 1475.37,414.66 3062.69,11.97 4142.3,-1051.09 794.67,-782.15 1233.08,-1824.35 1234.43,-2934.71 1.34,-1119.44 -440.57,-2173.75 -1244.32,-2968.56 -313.81,-309.97 -669.39,-567.32 -1056.67,-764.86 -42.52,-22.21 -86.25,-43.67 -134.5,-65.87 -121.44,-56.92 -245.78,-108.26 -370.25,-152.8 -286.35,-102.54 -585.36,-174.66 -888.66,-214.29 -300.49,-39.63 -605.88,-47.37 -907.71,-23.08 -97.02,7.8 -193.64,18.84 -287.23,32.77 -145.8,21.8 -289.17,50.66 -426.09,85.85 -723.22,183.48 -1385.82,556.56 -1916.34,1079 -917.19,902.59 -1356.61,2152.09 -1205.69,3427.76zm4223.84 3895.77c-404.9,0 -813.04,-54.83 -1213.5,-167.33 -81.01,-23.01 -162.49,-48.37 -242.29,-75.55 -222.83,-76.77 -439.55,-171.1 -644.36,-280.5 -175.07,-93.32 -344.15,-198.49 -502.39,-312.46 -189,-135.37 -369.45,-287.7 -536.18,-452.48 -61.15,-61.09 -114.17,-116.53 -162.41,-169.82 -104.96,-115.18 -205.55,-238.24 -298.87,-365.54 -441.17,-602.31 -720.59,-1311.33 -808.06,-2050.29 -157.78,-1333.13 301.36,-2638.61 1259.72,-3581.77 554.01,-545.45 1245.8,-935.02 2000.64,-1126.5 142.84,-36.67 292.48,-66.88 444.6,-89.62 97.76,-14.6 198.62,-26.04 299.74,-34.18 314.88,-25.37 633.4,-17.29 946.73,24.02 316.36,41.38 628.28,116.6 927.08,223.58 129.92,46.55 259.78,100.11 385.86,159.25 50.47,23.28 96.89,45.96 141.37,69.24 403.55,205.81 774.55,474.34 1102.08,797.76 839.34,830.06 1300.76,1931.27 1299.35,3100.7 -1.41,1160.42 -459.47,2249.51 -1289.73,3066.72 -833.83,820.98 -1957.71,1264.77 -3109.38,1264.77z"/>
   <path class="fil3" d="M4462.47 9330.41c83.09,701.61 348.39,1374.84 767.35,1946.87 88.75,121.04 184.42,238.05 284.34,347.72 46.09,50.86 96.62,103.68 154.81,161.81 158.05,156.3 329.69,301.16 509.53,430 150.65,108.46 311.32,208.38 477.77,297.12 194.78,104.02 400.8,193.71 612.47,266.57 75.83,25.84 153.61,50.13 230.78,71.99 1464.13,411.5 3039.07,11.91 4110.27,-1042.87 788.41,-775.9 1223.26,-1809.82 1224.6,-2911.37 1.35,-1110.56 -437.06,-2156.53 -1234.49,-2945.14 -311.45,-307.55 -664.28,-562.95 -1048.53,-758.94 -42.32,-22.14 -85.58,-43.27 -133.35,-65.27 -120.64,-56.58 -244.03,-107.51 -367.5,-151.72 -284.19,-101.73 -580.91,-173.32 -881.86,-212.68 -298.26,-39.29 -601.3,-46.96 -900.84,-22.81 -96.28,7.67 -192.16,18.57 -285.01,32.43 -144.66,21.67 -286.96,50.33 -422.8,85.18 -717.64,182.07 -1375.05,552.25 -1901.4,1070.6 -909.99,895.45 -1345.91,2134.93 -1196.14,3400.51zm4191.21 3932.44c-407.8,0 -819.03,-55.17 -1222.38,-168.54 -81.68,-23.15 -163.7,-48.72 -244.04,-76.1 -224.52,-77.31 -442.85,-172.38 -649.27,-282.59 -176.35,-93.99 -346.64,-199.96 -506.1,-314.74 -190.34,-136.38 -372.07,-289.79 -540,-455.84 -61.7,-61.63 -115.06,-117.41 -163.7,-171.1 -105.63,-115.99 -207.03,-239.92 -301.02,-368.17 -444.53,-606.95 -726.04,-1321.28 -814.25,-2065.83 -158.92,-1343.29 303.71,-2658.79 1269.41,-3609.08 558.11,-549.56 1255.09,-942.09 2015.58,-1134.99 143.78,-36.93 294.56,-67.28 447.76,-90.22 98.57,-14.74 200.16,-26.31 302.1,-34.45 317.03,-25.57 637.9,-17.43 953.59,24.22 318.58,41.65 632.85,117.41 933.87,225.19 130.87,46.9 261.66,100.86 388.69,160.41 50.8,23.41 97.7,46.35 142.71,69.9 406.18,207.17 780,477.71 1109.89,803.49 845.67,836.31 1310.52,1945.87 1309.17,3124.18 -1.41,1169.23 -462.97,2266.67 -1299.62,3090.07 -840.02,827.16 -1972.11,1274.19 -3132.39,1274.19z"/>
   <path class="fil3" d="M4606.45 10407.59c1696.46,2559.22 5366.36,2684.23 6669.35,-42.52 886.45,-1855.1 -275.05,-4153.73 -2140.31,-4889.4 -1357.62,-535.5 -2917.16,-473.66 -4323.89,1373.23 0,0 -494.26,913.22 -489.28,1654.61 4.91,741.38 136.52,1462.38 136.52,1462.38l147.61 441.7z"/>
   <path class="fil12" d="M11275.67 10365.07c-1302.86,2726.68 -4972.83,2601.6 -6669.28,42.59l-29.81 -89.55c2404.94,1489.69 5604.74,994.56 6974.27,-1737.9 77.04,597.73 -1.68,1212.36 -275.18,1784.86z"/>
   <path class="fil3" d="M6170.49 12211.02c1037.77,518.48 2216.95,615.77 3236.95,266.71 957.09,-327.53 1706.41,-1009.84 2166.89,-1973.32 420.11,-879.11 437.87,-1906.51 49.99,-2893 -434.1,-1104.1 -1327,-2013.15 -2388.38,-2431.78 -587.31,-231.65 -1155.37,-338.29 -1688.78,-317.03 -712.45,183.07 -1365.23,551.91 -1888.55,1067.3 -909.92,895.45 -1345.84,2134.99 -1196.14,3400.51 83.09,701.61 348.39,1374.84 767.35,1946.87 88.75,121.04 184.42,238.05 284.34,347.72 46.09,50.86 96.62,103.68 154.81,161.81 155.76,154.01 324.57,296.85 501.52,424.21zm1971.1 724.1c-706.59,0 -1427.66,-169.89 -2092.67,-503.95 -5.86,-2.96 -11.44,-6.32 -16.76,-10.16 -190.61,-136.51 -372.34,-289.92 -540.27,-455.97 -61.7,-61.63 -115.06,-117.41 -163.7,-171.1 -105.63,-115.99 -207.03,-239.92 -301.02,-368.17 -444.53,-606.95 -726.04,-1321.28 -814.25,-2065.83 -158.92,-1343.29 303.71,-2658.79 1269.41,-3609.08 558.11,-549.56 1255.09,-942.09 2015.58,-1134.99 8.27,-2.15 16.82,-3.36 25.36,-3.76 572.57,-25.03 1179.86,87.26 1804.85,333.78 1125.09,443.73 2070.88,1405.8 2530.08,2573.55 413.65,1052.09 393.4,2150.61 -57.19,3093.36 -490.29,1025.72 -1289.8,1752.77 -2312.22,2102.64 -429.47,147.01 -885.24,219.68 -1347.2,219.68z"/>
   <path class="fil3" d="M4663.44 10379.74c853.88,1283.21 2275.28,2017.59 3712.16,1917.2 1254.08,-87.66 2290.49,-801.66 2843.55,-1958.92 379.67,-794.6 395.96,-1722.49 45.82,-2612.83 -391.18,-994.64 -1195.81,-1813.73 -2152.56,-2191.12 -1641.82,-647.59 -3070.89,-193.77 -4247.79,1348.88 -35.66,67.41 -484.1,928.76 -479.53,1620.15 4.65,697.72 124.01,1386.42 134.77,1447.18l143.58 429.46zm3450.57 2051.97c-1390.12,0 -2734.96,-744.95 -3559.9,-1989.4l-4.58 -6.93 -152.46 -458.26c-1.34,-7.26 -132.68,-734.85 -137.59,-1473.21 -4.98,-748.92 476.36,-1647 496.88,-1684.88l5.25 -8.14c1215.72,-1596.07 2694.98,-2064.96 4396.89,-1393.68 988.58,389.89 1819.71,1235.5 2223.34,2262.02 363.05,923.12 345.49,1886.6 -49.39,2712.96 -573.04,1199.23 -1647.6,1939.14 -2948.1,2030.1 -90.23,6.26 -180.38,9.42 -270.34,9.42z"/>
   <path class="fil7" d="M13399.56 9949.6c-187.38,820.44 -836.11,1397.86 -1449.19,1289.6 -613.07,-108.32 -958.1,-861.28 -770.71,-1681.72 1.07,-5.18 2.48,-10.56 3.83,-15.74 191.89,-812.1 836.65,-1381.44 1445.36,-1273.85 473.6,83.63 787.26,552.05 819.16,1138.95 9.28,172.85 -5.86,356.19 -48.45,542.76z"/>
   <path class="fil8" d="M12101.56 11126.64l0 0c-43.2,0 -86.4,-3.64 -129.32,-11.24 -204.74,-36.19 -381.22,-158.18 -510.27,-352.69 -186.17,-280.7 -250.69,-682.38 -177.83,-1088.96 45.28,37.34 102.95,62.77 175.95,62.77 2.02,0 3.97,0 6.05,-0.07 98.1,-1.88 239.8,-66.87 378.33,-147.07 -22.34,63.17 -41.58,128.71 -57.32,196.12 -138.67,596.05 45.01,1141.71 415.06,1308.37 15.27,6.93 30.88,13.12 46.76,18.71 -48.91,9.28 -98.16,14.06 -147.41,14.06z"/>
   <path class="fil3" d="M12477.87 8380.31c-507.24,0 -1016.84,509.33 -1175.69,1205.03 -99.65,436.19 -39.9,876.28 159.79,1177.37 129.05,194.51 305.53,316.5 510.27,352.69 42.92,7.6 86.12,11.24 129.32,11.24 507.17,0.07 1016.76,-509.26 1175.68,-1204.96 99.58,-436.19 39.84,-876.28 -159.86,-1177.37 -129.05,-194.58 -305.46,-316.5 -510.27,-352.69 -42.86,-7.61 -86.12,-11.31 -129.24,-11.31zm-380.42 2997.22c-56.38,0 -112.76,-4.77 -168.88,-14.73 -274.17,-48.45 -507.91,-207.9 -675.98,-461.22 -240.53,-362.58 -311.72,-862.76 -195.39,-1372.15 201.78,-883.42 916.59,-1504.84 1593.65,-1385.21 274.17,48.44 507.91,207.9 675.91,461.22 240.54,362.58 311.79,862.76 195.39,1372.15 -185.02,810.15 -801.6,1399.94 -1424.7,1399.94z"/>
   <path class="fil7" d="M13466.11 10068.76c-155.43,668.31 -657.22,1146.76 -1120.86,1068.58 -463.64,-78.19 -713.46,-683.39 -558.04,-1351.7 155.43,-668.38 657.28,-1146.76 1120.86,-1068.58 463.64,78.18 713.53,683.32 558.04,1351.7z"/>
   <path class="fil8" d="M11844.47 9589.38c23.75,-67.15 51,-131.68 81.28,-193.1 0,0.06 0,0.13 -0.07,0.2 -30.28,61.43 -57.46,125.81 -81.21,192.9l0 0z"/>
   <path class="fil10" d="M12202.21 11093.87c-370.05,-166.66 -553.73,-712.32 -415.06,-1308.37 15.74,-67.41 34.98,-132.95 57.32,-196.12l0 0c-22.34,63.17 -41.58,128.77 -57.26,196.26 -138.6,595.85 45.01,1141.51 415,1308.23z"/>
   <path class="fil3" d="M12749.69 11073.49c144.05,-68.09 280.63,-181.67 397.5,-328.88 -116.87,147.21 -253.45,260.79 -397.5,328.88zm724.36 -1040.19c2.55,-12.24 5.04,-24.42 7.33,-36.6 -2.29,12.18 -4.78,24.36 -7.33,36.6z"/>
   <path class="fil8" d="M12445.7 11145.68c-33.57,0 -67.21,-2.76 -100.58,-8.41 -50.2,-8.48 -97.97,-23.15 -142.91,-43.4 -369.99,-166.72 -553.6,-712.38 -415,-1308.23 15.68,-67.49 34.92,-133.09 57.26,-196.26 23.75,-67.09 50.93,-131.47 81.21,-192.9 -45.75,560.93 199.36,1029.48 606.35,1098.58 34.18,5.85 68.49,8.68 102.94,8.68 328.67,-0.07 661.85,-258.1 867.67,-649.95 -5.11,47.03 -12.11,94.74 -21.26,142.91 -2.29,12.18 -4.78,24.36 -7.33,36.6 -2.56,11.78 -5.19,23.55 -7.94,35.33 -60.89,261.86 -174.87,494.52 -318.92,675.98 -116.87,147.21 -253.45,260.79 -397.5,328.88 -99.18,46.82 -201.78,72.19 -303.99,72.19z"/>
   <path class="fil3" d="M12808.83 8834.4c-371.4,0 -770.32,425.36 -899.23,979.7 -85.25,366.28 -42.05,726.11 115.39,962.54 88,132.14 206.02,214.02 341.12,236.76 391.85,66.21 839.61,-379.54 977.68,-973.1l0 0c85.18,-366.35 42.05,-726.11 -115.39,-962.54 -88.07,-132.14 -206.02,-214.02 -341.19,-236.83 -25.9,-4.38 -52.08,-6.53 -78.38,-6.53zm-360.57 2437.16c-41.31,0 -82.62,-3.43 -123.93,-10.36 -205.21,-34.58 -381.02,-154.01 -508.45,-345.29 -195.19,-293.01 -251.64,-726.18 -151.05,-1158.73 172.85,-743.14 728.12,-1254.14 1264.16,-1164.05 205.21,34.65 381.09,154.07 508.52,345.36 195.12,293.01 251.57,726.17 150.98,1158.73 -159.52,685.88 -644.9,1174.34 -1140.23,1174.34z"/>
   <path class="fil13" d="M5085.44 9275.23c-281.78,-557.9 -354.38,-1098.44 -123.06,-1724.3 23.01,-61.64 48.98,-124.34 77.71,-187.86 6.59,-14.66 13.45,-29.06 20.58,-43.46l0.54 -0.81c67.42,-124.54 162.29,-284.94 284.67,-456.91 368.85,-518.95 986.36,-1144.54 1851.81,-1217.47 98.37,-8.28 194.92,-12.18 289.18,-12.18 1457.07,0 2411.8,930.38 2325.01,981.71 0,0 -891.43,-415.13 -1913.51,-415.13 -401.2,0 -822.32,63.92 -1217.88,241.95 -1.48,0.67 -2.96,1.34 -4.44,2.02 -295.23,133.15 -671.4,548.95 -857.1,811.42 -245.52,347.18 -362.92,622.23 -456.85,868.28 -285.28,748.58 -276.66,1152.74 -276.66,1152.74z"/>
   <path class="fil13" d="M10162.95 9560.85c-15.94,0 -32.02,-0.81 -48.17,-2.43 -295.3,-30.14 -507.44,-329.61 -473.8,-668.98 31.82,-320.8 271.95,-562.41 547.61,-562.41 15.94,0 32.03,0.8 48.11,2.48 295.36,30.08 507.5,329.62 473.86,668.99 -31.82,320.8 -271.95,562.35 -547.61,562.35z"/>
   <path class="fil13" d="M10098.9 10304.92c-19.24,-38.48 -29.94,-83.16 -29.33,-130.73 1.81,-139.48 100.72,-251.03 221.62,-251.03 1.21,0 2.43,0 3.57,0 67.42,1.28 127.3,36.87 167.26,92.11 -116.93,103.82 -238.18,200.37 -363.12,289.65z"/>
   <path class="fil14" d="M10291.66 10433.3c-1.21,0 -2.42,0 -3.63,-0.07 -81.14,-1.48 -151.45,-52.82 -189.13,-128.31 124.94,-89.28 246.19,-185.83 363.12,-289.65 32.77,45.28 52.08,103.62 51.27,167 -1.82,139.47 -100.72,251.03 -221.63,251.03z"/>
  </g>
 </g>
</svg>
